<svg width="22" height="8" viewBox="0 0 22 8" fill="none" xmlns="http://www.w3.org/2000/svg">
<path fill-rule="evenodd" clip-rule="evenodd" d="M17.7595 0.0469566C17.6523 0.10987 17.5545 0.319043 17.5545 0.485478C17.5545 0.61387 17.6913 0.765522 18.9884 2.07457L20.4223 3.52174H10.4216C-0.530796 3.52174 0.199964 3.50374 0.0596803 3.77704C-0.0692545 4.0283 0.0157096 4.2873 0.266416 4.40717C0.402686 4.47235 1.24926 4.47826 10.4187 4.47826H20.4223L18.9884 5.92544L17.5545 7.37257V7.55917C17.5545 7.70748 17.5804 7.77191 17.6806 7.87291C17.7848 7.97791 17.8426 8 18.0129 8H18.2191L20.0638 6.14461C21.0784 5.12413 21.9311 4.23422 21.9587 4.16704C22.0762 3.88113 22.0743 3.87865 20.0884 1.8797L18.221 0L18.028 0.00130429C17.9218 0.00204343 17.801 0.0225653 17.7595 0.0469566Z" fill="#ED7D31"/>
</svg>
