<svg width="10" height="17" viewBox="0 0 10 17" fill="none" xmlns="http://www.w3.org/2000/svg">
<path fill-rule="evenodd" clip-rule="evenodd" d="M0.400989 0.0726295C0.147996 0.191128 0.0259735 0.357585 0.0085832 0.608C-0.00268428 0.770538 0.0102134 0.846061 0.0666233 0.947423C0.111983 1.02892 1.66197 2.46924 4.20048 4.78881L8.26181 8.49984L4.20037 12.2113C1.66603 14.5272 0.111729 15.9716 0.0665147 16.0529C-0.0436965 16.2509 -0.0136621 16.5589 0.132272 16.727C0.347585 16.9751 0.719304 17.0683 1.0107 16.9473C1.18022 16.8769 9.83169 8.96762 9.93128 8.792C10.0229 8.63046 10.0229 8.36968 9.93128 8.20814C9.83169 8.03252 1.18022 0.123244 1.0107 0.0528354C0.825312 -0.0241491 0.591413 -0.0165436 0.400989 0.0726295Z" fill="white"/>
</svg>
