<svg width="16" height="16" viewBox="0 0 16 16" fill="none" xmlns="http://www.w3.org/2000/svg">
<path fill-rule="evenodd" clip-rule="evenodd" d="M2.84259 0.0352706C2.58575 0.100026 2.32608 0.24549 2.06048 0.473447C1.76596 0.72621 0.705917 1.79946 0.533371 2.01959C-0.16598 2.91174 -0.177722 4.29903 0.498899 6.08777C1.32553 8.27302 2.87417 10.4883 4.83258 12.2869C7.53338 14.7673 11.1475 16.3748 13.0109 15.9244C13.2869 15.8577 13.7457 15.6446 13.9565 15.4851C14.1681 15.3251 15.5885 13.8731 15.7204 13.6819C15.9642 13.3287 16.0582 12.8559 15.964 12.457C15.8587 12.0111 15.824 11.9684 14.4566 10.606C13.0779 9.23218 13.0357 9.19833 12.5791 9.10236C12.2196 9.02678 11.8523 9.09341 11.497 9.29862C11.4142 9.34649 11.0254 9.70136 10.6331 10.0873L9.91974 10.7889L9.69121 10.6705C9.1299 10.3797 8.71581 10.1005 8.09701 9.59531C7.46158 9.07658 6.57597 8.1646 6.08705 7.52552C5.73386 7.06385 5.21073 6.21075 5.20922 6.09397C5.20894 6.07157 5.45347 5.8154 5.75264 5.52472C6.37959 4.91552 6.62808 4.63053 6.76813 4.36016C6.94507 4.01852 6.97895 3.58832 6.85708 3.23067C6.73329 2.86729 6.61637 2.72964 5.41568 1.53355C4.22867 0.351131 4.04655 0.195688 3.70955 0.0772519C3.47237 -0.00608509 3.08178 -0.0250111 2.84259 0.0352706ZM3.56978 0.912186C3.65901 0.96302 4.15951 1.43733 4.83462 2.11084C6.05704 3.33043 6.1025 3.38783 6.1009 3.71029C6.09946 3.99634 6.02568 4.09513 5.20486 4.9103C4.79148 5.32079 4.43104 5.69949 4.40388 5.75183C4.36853 5.81993 4.35795 5.90799 4.36662 6.06121C4.37745 6.25198 4.40234 6.32202 4.59417 6.70119C5.0272 7.55706 5.59811 8.31116 6.5425 9.27466C7.48259 10.2338 8.41784 10.9475 9.38047 11.4404C9.72446 11.6165 9.78942 11.6393 9.94557 11.6383C10.053 11.6377 10.1649 11.615 10.2319 11.5803C10.2923 11.549 10.6809 11.1881 11.0953 10.7783C11.6304 10.2493 11.8899 10.0147 11.9901 9.96942C12.1784 9.88433 12.4239 9.88458 12.5956 9.97004C12.7857 10.0647 15.0028 12.2716 15.102 12.465C15.156 12.5701 15.1765 12.662 15.1765 12.7979C15.1765 13.1187 15.1115 13.2071 14.2193 14.0992C13.3358 14.9826 13.2537 15.0424 12.7833 15.1467C12.3302 15.2472 11.5671 15.1672 10.7936 14.9383C9.61762 14.5901 8.03341 13.757 6.73134 12.8018C4.22157 10.9608 2.06792 8.15074 1.17376 5.55043C0.748802 4.31458 0.701616 3.42891 1.0257 2.77181C1.1289 2.56256 1.2207 2.45714 1.87437 1.79698C2.27748 1.38984 2.6621 1.01892 2.72906 0.972686C3.00983 0.778796 3.2991 0.757993 3.56978 0.912186Z" fill="#ED7D31"/>
</svg>
