<svg width="14" height="10" viewBox="0 0 14 10" fill="none" xmlns="http://www.w3.org/2000/svg">
<path fill-rule="evenodd" clip-rule="evenodd" d="M0.918055 0.0430909C0.835315 0.06565 0.755479 0.096377 0.740685 0.111379C0.710685 0.141801 6.65904 6.19646 6.7863 6.26509C6.88151 6.31643 7.11849 6.31643 7.2137 6.26509C7.33997 6.19699 13.2893 0.141801 13.2596 0.111685C13.2449 0.0968213 13.1594 0.065261 13.0696 0.0415629C12.9244 0.0032236 12.2515 -0.00136045 6.9874 0.000278694C1.86014 0.00186227 1.04838 0.0075854 0.918055 0.0430909ZM0.050137 0.866636C0.00243835 1.00535 0 1.2073 0 4.99922C0 8.79115 0.00243835 8.99309 0.050137 9.13181C0.077726 9.21202 0.108575 9.27767 0.118712 9.27767C0.128822 9.27767 1.08638 8.31502 2.24658 7.13844L4.35603 4.99922L2.24658 2.86C1.08638 1.68343 0.128822 0.72078 0.118712 0.72078C0.108575 0.72078 0.077726 0.786401 0.050137 0.866636ZM11.7534 2.86L9.64397 4.99922L11.7534 7.13844C12.9136 8.31502 13.8712 9.27767 13.8813 9.27767C13.8914 9.27767 13.9223 9.21202 13.9499 9.13181C13.9976 8.99309 14 8.79115 14 4.99922C14 1.2073 13.9976 1.00535 13.9499 0.866636C13.9223 0.786401 13.8914 0.72078 13.8813 0.72078C13.8712 0.72078 12.9136 1.68343 11.7534 2.86ZM2.80888 7.73509C1.4509 9.11225 0.723151 9.86928 0.740438 9.88679C0.755123 9.90162 0.840603 9.93318 0.930411 9.95688C1.07553 9.99519 1.75112 10 7 10C12.2489 10 12.9245 9.99519 13.0696 9.95688C13.1594 9.93318 13.2449 9.90162 13.2596 9.88676C13.2769 9.86923 12.5482 9.11131 11.1851 7.72904L9.08392 5.59832L8.43236 6.25289C7.83619 6.85184 7.76233 6.91669 7.56307 7.01601L7.34531 7.12455H7H6.65468L6.43693 7.01562C6.23836 6.9163 6.16227 6.84959 5.57323 6.25856C5.21795 5.90209 4.92203 5.61043 4.91562 5.61043C4.90921 5.61043 3.96118 6.56652 2.80888 7.73509Z" fill="#ED7D31"/>
</svg>
