<svg width="36" height="42" viewBox="0 0 36 42" fill="none" xmlns="http://www.w3.org/2000/svg">
<path fill-rule="evenodd" clip-rule="evenodd" d="M17.2383 4.72357C17.1443 4.77429 15.7748 5.90314 14.1951 7.23219L11.3228 9.64862L11.2886 8.5599C11.2509 7.35866 11.2078 7.22186 10.7891 6.97133C10.5862 6.84996 10.4333 6.84057 8.6557 6.84057C6.8781 6.84057 6.72519 6.84996 6.52228 6.97133C6.03974 7.25997 6.05951 7.10525 6.034 10.7956L6.01109 14.1197L4.00426 15.7971C2.79018 16.8118 1.94156 17.5707 1.85587 17.7183C1.66814 18.0419 1.6678 18.5392 1.85505 18.8405C2.09386 19.2249 3.0612 20.2853 3.29987 20.4245C3.62943 20.6167 4.23671 20.6078 4.51409 20.4066L4.72342 20.2547V26.6977V33.1407L3.85148 33.1408C2.79893 33.1409 2.5818 33.218 2.34696 33.6749C2.20615 33.9488 2.19309 34.0671 2.19309 35.0692C2.19309 36.2882 2.24027 36.4872 2.59938 36.7836L2.81904 36.965H17.7854H32.7518L32.9715 36.7836C33.3306 36.4872 33.3778 36.2882 33.3778 35.0692C33.3778 34.0671 33.3647 33.9488 33.2239 33.6749C32.989 33.218 32.7719 33.1409 31.7194 33.1408L30.8474 33.1407V26.6893C30.8474 20.5508 30.8532 20.2429 30.9671 20.3405C31.2884 20.6158 31.8888 20.6441 32.3052 20.4035C32.5163 20.2816 33.4924 19.2 33.7158 18.8405C33.9101 18.5278 33.9041 18.0211 33.7023 17.6994C33.5629 17.4773 18.9917 5.16867 18.4085 4.78033C18.1382 4.60045 17.5221 4.57053 17.2383 4.72357ZM25.3071 11.9955L32.763 18.2578L32.6306 18.4364C32.5577 18.5346 32.3158 18.811 32.0928 19.0504C31.7174 19.4537 31.6781 19.4785 31.5598 19.3859C31.4896 19.3309 28.5407 16.8587 25.0067 13.8922C21.4727 10.9257 18.4782 8.43886 18.3524 8.36607C18.0754 8.20571 17.5516 8.19075 17.2672 8.335C17.1573 8.39082 14.116 10.9153 10.5087 13.9451C6.90149 16.9747 3.92684 19.4536 3.89839 19.4536C3.85285 19.4536 3.11939 18.6662 2.88947 18.3704C2.81432 18.2737 3.0826 18.0261 5.0458 16.3801C6.27896 15.3461 9.64219 12.521 12.5196 10.1019C15.397 7.68286 17.7737 5.71024 17.8013 5.71836C17.8288 5.72641 21.2065 8.55111 25.3071 11.9955ZM10.126 9.28317V10.6527L8.74118 11.8192C7.97948 12.4606 7.3179 13.0085 7.27085 13.0366C7.20301 13.0772 7.18537 12.5528 7.18537 10.5006V7.91359H8.6557H10.126V9.28317ZM23.8094 14.3521L29.7532 19.3443V26.2425V33.1407H28.039H26.3246L26.3721 32.9897C26.4612 32.7065 26.6202 32.4521 27.0687 31.8754C27.8176 30.9123 28.0173 30.33 27.9574 29.2828C27.9149 28.5379 27.7467 28.0808 27.2876 27.4619C26.3512 26.1996 26.2397 25.9334 26.2793 25.0516L26.2997 24.5963L26.9151 25.51C27.6418 26.5886 27.8656 26.7414 28.266 26.4324C28.5362 26.2239 28.5577 25.9996 28.3423 25.6369C28.0463 25.1386 26.1153 22.3103 26.0327 22.2542C25.8715 22.1448 25.652 22.1293 25.478 22.2152C25.2104 22.3474 22.9145 25.7699 22.9145 26.0366C22.9145 26.4458 23.4316 26.7062 23.7752 26.4701C23.8516 26.4176 24.1739 25.9898 24.4914 25.5195L25.0687 24.6644L25.151 25.4754C25.2509 26.4589 25.4209 26.8705 26.073 27.7062C26.3176 28.0199 26.5675 28.3706 26.628 28.4856C26.8978 28.9974 26.8978 30.0379 26.628 30.5497C26.5675 30.6647 26.3179 31.0154 26.0736 31.3291C25.6359 31.8908 25.2398 32.5974 25.2397 32.8165C25.2395 33.1567 25.4109 33.1407 21.7818 33.1407H18.407L18.5087 32.8578C18.5646 32.7022 18.823 32.3022 19.0827 31.9688C19.3425 31.6354 19.6549 31.1532 19.7769 30.8971C19.9735 30.4847 20.0023 30.3489 20.0292 29.7084C20.0761 28.592 19.9114 28.1326 19.082 27.0665C18.5006 26.3192 18.3948 26.0461 18.3549 25.1901L18.3238 24.5192L18.9391 25.4348C19.5744 26.3802 19.7531 26.5655 20.0285 26.5655C20.2325 26.5655 20.5893 26.2208 20.5893 26.0237C20.5893 25.9414 20.0468 25.0656 19.3836 24.0774C18.0865 22.1444 17.9863 22.0395 17.5891 22.2008C17.4409 22.2611 17.0979 22.7202 16.1872 24.0774C15.5241 25.0656 14.9815 25.9414 14.9815 26.0237C14.9815 26.2208 15.3384 26.5655 15.5424 26.5655C15.8186 26.5655 15.9973 26.3791 16.6259 25.4348L17.2354 24.5192L17.2385 25.1901C17.2437 26.2831 17.4237 26.782 18.1384 27.6828C18.7624 28.4691 18.9109 28.8218 18.9109 29.5176C18.9109 30.2135 18.7624 30.5662 18.1384 31.3525C17.6938 31.9129 17.4085 32.4358 17.3204 32.852L17.2664 33.1071L13.8966 33.1245L10.5267 33.142L10.5744 32.9903C10.6646 32.7037 10.832 32.4351 11.2754 31.866C12.021 30.9091 12.2197 30.3287 12.1599 29.2828C12.1174 28.5379 11.9492 28.0808 11.4901 27.4619C10.5537 26.1996 10.4423 25.9334 10.4818 25.0516L10.5022 24.5963L11.1176 25.51C11.8443 26.5886 12.0681 26.7414 12.4685 26.4324C12.7638 26.2045 12.7656 25.9962 12.4764 25.5328C12.0348 24.8253 10.3136 22.3075 10.2351 22.2542C10.0741 22.1448 9.85446 22.1293 9.68055 22.2152C9.41288 22.3474 7.11698 25.7699 7.11698 26.0366C7.11698 26.4458 7.63413 26.7062 7.97771 26.4701C8.05409 26.4176 8.37593 25.9906 8.69283 25.5212L9.26906 24.6678L9.35284 25.4902C9.4533 26.4767 9.6095 26.8517 10.2757 27.7062C10.8337 28.4219 10.9245 28.5952 11.0083 29.1062C11.0823 29.557 11.0075 30.2146 10.8479 30.5162C10.7967 30.6128 10.5491 30.9624 10.2975 31.2931C9.78081 31.9723 9.55287 32.3796 9.43716 32.8305L9.35756 33.1407H7.58755H5.81762V26.2425V19.3444L11.7844 14.3338C15.0662 11.578 17.7769 9.33147 17.8084 9.3416C17.8399 9.35167 20.5403 11.6064 23.8094 14.3521ZM32.2152 35.0864V35.8915H17.7854H3.35567V35.0864V34.2813H17.7854H32.2152V35.0864Z" fill="#ED7D31"/>
</svg>
