<svg width="36" height="42" viewBox="0 0 36 42" fill="none" xmlns="http://www.w3.org/2000/svg">
<path fill-rule="evenodd" clip-rule="evenodd" d="M18.239 3.5948C17.9417 3.88619 17.9266 4.16365 18.1846 4.60076C18.6117 5.32458 18.7509 6.16711 18.5293 6.6869C18.4724 6.82036 18.2531 7.16556 18.0419 7.45398C17.4732 8.23064 17.3424 8.61243 17.3428 9.49278C17.3432 10.1148 17.3707 10.2887 17.5395 10.733C18.0028 11.9523 18.4772 12.372 19.0855 12.1004C19.5287 11.9025 19.6041 11.4173 19.2787 10.8568C18.9758 10.3351 18.8187 9.75061 18.8644 9.31619C18.9073 8.90946 19.0413 8.61732 19.3681 8.2181C20.1052 7.3179 20.351 6.26095 20.074 5.18367C19.914 4.56149 19.4205 3.64276 19.1641 3.48952C18.8239 3.28619 18.5184 3.32099 18.239 3.5948ZM12.5129 6.35162C12.2174 6.44795 12.0091 6.725 12.01 7.02073C12.0104 7.14875 12.1085 7.4349 12.228 7.65669C12.3475 7.87842 12.4453 8.13177 12.4453 8.21975C12.4453 8.30767 12.3343 8.51383 12.1985 8.67781C12.0628 8.84187 11.865 9.14655 11.759 9.35498C11.5963 9.67503 11.5667 9.81958 11.5688 10.2852C11.5709 10.7796 11.5985 10.8918 11.8369 11.374C12.1294 11.9659 12.3809 12.1793 12.7863 12.1797C12.9606 12.1799 13.084 12.119 13.2609 11.9457C13.5641 11.6486 13.5701 11.4166 13.289 10.8708C13.173 10.6456 13.0781 10.3814 13.0781 10.2837C13.0781 10.0776 13.2295 9.76481 13.3939 9.63107C13.6007 9.46288 13.8512 8.96885 13.9232 8.58721C14.0471 7.92982 13.7665 7.00853 13.3042 6.5555C13.0473 6.30374 12.831 6.248 12.5129 6.35162ZM24.6093 6.30973C24.3628 6.34522 24.0564 6.651 24.0065 6.91138C23.975 7.07606 24.0187 7.23591 24.1814 7.55196C24.4834 8.13824 24.468 8.34729 24.087 8.82823C23.6696 9.35477 23.5284 9.78809 23.5695 10.4153C23.6076 10.9979 23.9248 11.7226 24.2641 12.0024C24.695 12.3577 25.2956 12.1707 25.461 11.6298C25.5362 11.3841 25.525 11.3295 25.3221 10.9473C25.0184 10.3754 25.0256 10.0771 25.3526 9.69356C25.8186 9.14703 25.909 8.90746 25.9096 8.2181C25.91 7.68177 25.8831 7.54087 25.7107 7.17514C25.4056 6.52815 25.0475 6.24676 24.6093 6.30973ZM34.9804 11.4878C34.903 11.5191 34.7606 11.6281 34.664 11.73L34.4882 11.9153L34.4672 14.9759L34.4462 18.0366H33.7569H33.0674L33.0253 17.0547C32.9809 16.0179 32.8879 15.6006 32.5903 15.103C31.9849 14.0907 30.6511 13.4754 29.5123 13.6829C28.9857 13.7788 28.4008 14.052 28.0423 14.3694C27.8029 14.5814 27.7584 14.5975 27.6428 14.5136C27.5713 14.4617 27.3782 14.3195 27.2138 14.1975C26.1343 13.3972 24.4962 13.4885 23.505 14.4042C23.2552 14.6351 23.3303 14.6548 22.7138 14.1975C21.6343 13.3972 19.9962 13.4885 19.0051 14.4042C18.7552 14.6351 18.8303 14.6548 18.2138 14.1975C17.1343 13.3972 15.4962 13.4885 14.5051 14.4042C14.2553 14.6351 14.3303 14.6548 13.7138 14.1975C12.6343 13.3972 10.9962 13.4885 10.0051 14.4042C9.75527 14.6351 9.83036 14.6548 9.21386 14.1975C7.75376 13.1149 5.57703 13.6959 4.77118 15.3833L4.55701 15.8317H3.36142C1.58997 15.8317 1.47656 15.9184 1.47656 17.2718V18.0366H1.08759C0.389952 18.0366 0 18.3083 0 18.7945C0 19.2807 0.389952 19.5524 1.08759 19.5524H1.47656V20.3172C1.47656 21.6663 1.59391 21.7573 3.33287 21.7573H4.49999V28.9514C4.49999 35.7192 4.50758 36.1693 4.62817 36.5478C5.28734 38.6171 7.85367 39.3111 9.52591 37.8722L9.76504 37.6665L10.0329 37.8987C11.1836 38.8961 12.8487 38.8851 14.0259 37.8722L14.265 37.6665L14.5328 37.8987C15.6836 38.8961 17.3487 38.8851 18.5259 37.8722L18.765 37.6665L19.0328 37.8987C20.1836 38.8961 21.8487 38.8851 23.0259 37.8722L23.265 37.6665L23.5328 37.8987C24.6835 38.8961 26.3487 38.8851 27.5259 37.8722L27.765 37.6665L28.0328 37.8987C28.606 38.3955 29.2493 38.6382 29.9935 38.6382C31.2375 38.6382 32.3503 37.8659 32.8486 36.6565L33.0116 36.2611L33.0316 27.9067L33.0516 19.5524H34.1764C35.3894 19.5524 35.6754 19.4934 35.8852 19.1999C35.9877 19.0566 35.9999 18.6598 35.9999 15.4872C35.9999 11.5481 36.0195 11.7161 35.5359 11.5181C35.2729 11.4104 35.1834 11.4055 34.9804 11.4878ZM8.32533 15.3986C8.48367 15.5076 8.69236 15.7349 8.78904 15.9037L8.96482 16.2107L8.98654 25.9258C9.00243 33.0346 8.98668 35.7391 8.92776 36.007C8.78207 36.6697 8.2001 37.1193 7.48826 37.1193C6.84075 37.1193 6.28163 36.7333 6.11583 36.1718C6.06338 35.994 6.04679 32.9034 6.06127 25.9888L6.08201 16.0611L6.28332 15.7764C6.40784 15.6003 6.62236 15.4232 6.84581 15.312C7.33006 15.071 7.89734 15.1042 8.32533 15.3986ZM12.8253 15.3986C12.9837 15.5076 13.1923 15.7349 13.289 15.9037L13.4648 16.2107L13.4865 25.9258C13.5024 33.0346 13.4867 35.7391 13.4277 36.007C13.2821 36.6697 12.7001 37.1193 11.9882 37.1193C11.3407 37.1193 10.7816 36.7333 10.6158 36.1718C10.5634 35.994 10.5468 32.9034 10.5613 25.9888L10.582 16.0611L10.7833 15.7764C10.9078 15.6003 11.1223 15.4232 11.3458 15.312C11.83 15.071 12.3973 15.1042 12.8253 15.3986ZM17.3253 15.3986C17.4836 15.5076 17.6923 15.7349 17.789 15.9037L17.9648 16.2107L17.9865 25.9258C18.0024 33.0346 17.9867 35.7391 17.9277 36.007C17.782 36.6697 17.2001 37.1193 16.4882 37.1193C15.8407 37.1193 15.2816 36.7333 15.1158 36.1718C15.0634 35.994 15.0468 32.9034 15.0612 25.9888L15.082 16.0611L15.2833 15.7764C15.4078 15.6003 15.6223 15.4232 15.8458 15.312C16.33 15.071 16.8973 15.1042 17.3253 15.3986ZM21.8253 15.3986C21.9836 15.5076 22.1923 15.7349 22.289 15.9037L22.4648 16.2107L22.4865 25.9258C22.5024 33.0346 22.4866 35.7391 22.4277 36.007C22.282 36.6697 21.7001 37.1193 20.9882 37.1193C20.3407 37.1193 19.7816 36.7333 19.6158 36.1718C19.5633 35.994 19.5467 32.9034 19.5612 25.9888L19.582 16.0611L19.7833 15.7764C19.9078 15.6003 20.1223 15.4232 20.3458 15.312C20.83 15.071 21.3973 15.1042 21.8253 15.3986ZM26.3253 15.3986C26.4836 15.5076 26.6923 15.7349 26.789 15.9037L26.9648 16.2107L26.9865 25.9258C27.0024 33.0346 26.9866 35.7391 26.9277 36.007C26.782 36.6697 26.2 37.1193 25.4882 37.1193C24.8407 37.1193 24.2816 36.7333 24.1158 36.1718C24.0633 35.994 24.0467 32.9034 24.0612 25.9888L24.082 16.0611L24.2833 15.7764C24.4078 15.6003 24.6223 15.4232 24.8458 15.312C25.33 15.071 25.8973 15.1042 26.3253 15.3986ZM30.8253 15.3986C30.9836 15.5076 31.1923 15.7349 31.289 15.9037L31.4647 16.2107L31.4865 25.9258C31.5024 33.0346 31.4866 35.7391 31.4277 36.007C31.282 36.6697 30.7 37.1193 29.9882 37.1193C29.3407 37.1193 28.7816 36.7333 28.6158 36.1718C28.5633 35.994 28.5467 32.9034 28.5612 25.9888L28.5819 16.0611L28.7832 15.7764C28.9078 15.6003 29.1223 15.4232 29.3457 15.312C29.83 15.071 30.3973 15.1042 30.8253 15.3986ZM4.49999 18.7945V20.2414H3.76171H3.02343V18.7945V17.3476H3.76171H4.49999V18.7945Z" fill="#ED7D31"/>
</svg>
