<svg width="28" height="27" viewBox="0 0 28 27" fill="none" xmlns="http://www.w3.org/2000/svg">
<g clip-path="url(#clip0_1257_1154)">
<path d="M1.74966 1.83342C-0.450671 4.0373 -0.000337191 6.37842 -0.000337191 13.4907C-0.000337191 19.3969 -1.069 25.3178 4.524 26.7117C6.2705 27.1448 21.7452 27.1448 23.4893 26.7094C25.818 26.13 27.7127 24.3087 27.9717 21.1328C28.0078 20.6895 28.0078 6.29967 27.9705 5.84742C27.6952 2.46455 25.5357 0.514924 22.6902 0.120049C22.038 0.0289235 21.9073 0.00192353 18.5613 -0.00370147C6.69283 0.00192353 4.09116 -0.507702 1.74966 1.83342Z" fill="url(#paint0_linear_1257_1154)"/>
<path d="M13.9968 3.53306C9.76063 3.53306 5.73797 3.16968 4.20147 6.97218C3.5668 8.54268 3.65897 10.5823 3.65897 13.5028C3.65897 16.0656 3.5738 18.4742 4.20147 20.0323C5.73447 23.8371 9.7898 23.4726 13.9945 23.4726C18.051 23.4726 22.2335 23.8798 23.7886 20.0323C24.4245 18.4461 24.3311 16.4368 24.3311 13.5028C24.3311 9.60806 24.554 7.09368 22.5951 5.20593C20.6118 3.29343 17.9296 3.53306 13.9921 3.53306H13.9968ZM13.0705 5.32968C21.9068 5.31618 23.0315 4.36894 22.4108 17.5281C22.1903 22.1822 18.5153 21.6714 13.998 21.6714C5.7613 21.6714 5.52447 21.4442 5.52447 13.4983C5.52447 5.46018 6.1778 5.33418 13.0705 5.32743V5.32968ZM19.5151 6.98456C18.8303 6.98456 18.275 7.52006 18.275 8.18043C18.275 8.84081 18.8303 9.37631 19.5151 9.37631C20.2 9.37631 20.7553 8.84081 20.7553 8.18043C20.7553 7.52006 20.2 6.98456 19.5151 6.98456ZM13.9968 8.38293C11.065 8.38293 8.68847 10.6757 8.68847 13.5028C8.68847 16.3299 11.065 18.6216 13.9968 18.6216C16.9286 18.6216 19.304 16.3299 19.304 13.5028C19.304 10.6757 16.9286 8.38293 13.9968 8.38293ZM13.9968 10.1796C18.5526 10.1796 18.5585 16.8261 13.9968 16.8261C9.44213 16.8261 9.43513 10.1796 13.9968 10.1796Z" fill="white"/>
</g>
<defs>
<linearGradient id="paint0_linear_1257_1154" x1="1.80335" y1="25.2718" x2="27.0119" y2="2.64603" gradientUnits="userSpaceOnUse">
<stop stop-color="#FFDD55"/>
<stop offset="0.5" stop-color="#FF543E"/>
<stop offset="1" stop-color="#C837AB"/>
</linearGradient>
<clipPath id="clip0_1257_1154">
<rect width="28" height="27" fill="white"/>
</clipPath>
</defs>
</svg>
