<svg width="11" height="18" viewBox="0 0 11 18" fill="none" xmlns="http://www.w3.org/2000/svg">
<path fill-rule="evenodd" clip-rule="evenodd" d="M9.62246 17.9145C9.87512 17.7953 9.99668 17.6285 10.0134 17.3781C10.0242 17.2155 10.0111 17.14 9.95439 17.0388C9.9088 16.9574 8.35481 15.5214 5.80985 13.209L1.7382 9.50924L5.78929 5.78652C8.31718 3.4635 9.86745 2.01477 9.91244 1.93341C10.0221 1.73506 9.99121 1.42721 9.8448 1.25947C9.6288 1.01198 9.25682 0.919787 8.96577 1.04162C8.79644 1.1125 0.167032 9.04583 0.0679256 9.22173C-0.0232495 9.38353 -0.0225234 9.6443 0.0695512 9.80559C0.169636 9.98093 8.84309 17.8661 9.01281 17.936C9.19841 18.0125 9.43228 18.0042 9.62246 17.9145Z" fill="white"/>
</svg>
