<svg width="21" height="15" viewBox="0 0 21 15" fill="none" xmlns="http://www.w3.org/2000/svg">
<path fill-rule="evenodd" clip-rule="evenodd" d="M15.1849 0.117025C15.4378 0.251983 15.6488 0.509497 15.7168 0.766425C15.7747 0.984721 15.7445 1.3673 15.6556 1.54282C15.5709 1.71 15.341 1.94598 15.1691 2.04189C15.044 2.11173 14.6371 2.11655 7.96124 2.12686C0.00810814 2.13918 0.649834 2.1649 0.312315 1.8202C-0.194885 1.30219 -0.066927 0.456872 0.570038 0.117025L0.789362 0H7.87747H14.9656L15.1849 0.117025ZM20.3008 6.49031C21.0549 6.75633 21.2442 7.75282 20.6454 8.30422C20.3108 8.61222 21.1227 8.58939 10.5031 8.58939C-0.116486 8.58939 0.695414 8.61222 0.360847 8.30422C-0.114969 7.86612 -0.114969 7.13388 0.360847 6.69578C0.695496 6.3877 -0.118988 6.41045 10.5208 6.412C19.6904 6.4133 20.0916 6.41652 20.3008 6.49031ZM10.9339 12.9613C11.7553 13.3542 11.7553 14.5311 10.9339 14.9204C10.7769 14.9948 10.5534 14.9982 5.77957 14.9991L0.789362 15L0.570038 14.883C0.175043 14.6723 -0.0286503 14.2854 0.0119648 13.8231C0.036293 13.5465 0.113791 13.3787 0.309566 13.1788C0.623947 12.8577 0.134304 12.8853 5.72361 12.8736L10.7288 12.8633L10.9339 12.9613Z" fill="white"/>
</svg>
