<svg width="36" height="36" viewBox="0 0 36 36" fill="none" xmlns="http://www.w3.org/2000/svg">
<path fill-rule="evenodd" clip-rule="evenodd" d="M18.1351 1.465C17.4209 1.57764 16.4999 1.84411 16.0148 2.07854C15.2395 2.45321 14.4044 3.2977 14.0253 4.09032C12.7529 6.75109 13.0881 10.7111 14.9079 14.5149C15.1934 15.1116 15.4122 15.6148 15.394 15.6329C15.3358 15.6912 13.5501 14.9299 12.7669 14.5129C11.0511 13.5993 10.0819 12.7369 9.56672 11.6651C9.3963 11.3107 9.15577 10.5534 8.96812 9.78085C8.79569 9.07053 8.59608 8.37623 8.52474 8.23817C8.24094 7.68912 7.59349 7.35136 6.96134 7.42265C6.45972 7.47922 5.83477 7.91756 4.86833 8.89064C2.15878 11.6187 0.880319 15.5877 1.67423 18.8061C2.15126 20.7398 3.36608 21.9399 5.35612 22.4432C8.07724 23.1315 11.3021 22.6641 14.522 21.1149C15.122 20.8263 15.6285 20.6055 15.6474 20.6244C15.7549 20.7321 14.7446 22.9323 14.0584 24.0849C12.9874 25.8837 12.1434 26.4718 9.79011 27.0586C9.03008 27.2482 8.29626 27.4713 8.15925 27.5547C8.02232 27.6379 7.80879 27.8597 7.68464 28.0473C7.49862 28.3286 7.45899 28.4766 7.45899 28.8903C7.45899 29.3426 7.49094 29.439 7.78251 29.8672C7.96044 30.1286 8.46999 30.708 8.91483 31.1548C10.4913 32.7383 12.6562 33.9192 14.8595 34.3974C15.9127 34.626 17.9038 34.6067 18.8226 34.359C19.9039 34.0675 20.4738 33.7561 21.1232 33.1025C21.8028 32.4184 22.1446 31.8078 22.4162 30.7921C23.1526 28.0392 22.7003 24.7929 21.1203 21.4905C20.8352 20.8946 20.6019 20.3946 20.6019 20.3796C20.6019 20.302 21.8983 20.8312 22.7857 21.2709C24.2028 21.9731 25.044 22.5366 25.6458 23.1869C26.3564 23.9549 26.6743 24.637 27.0583 26.2184C27.4052 27.6469 27.5162 27.9188 27.8762 28.2219C28.7018 28.9169 29.5425 28.6812 30.9272 27.3664C32.6523 25.7282 33.8897 23.5123 34.4045 21.1391C34.6307 20.0963 34.6092 18.1856 34.3605 17.2332C34.0753 16.1411 33.7542 15.5437 33.0953 14.88C32.4392 14.2191 31.8404 13.8894 30.7481 13.5876C28.0949 12.8547 24.7803 13.3231 21.4991 14.8945C20.9027 15.1802 20.3997 15.399 20.3816 15.3808C20.3234 15.3226 21.0843 13.536 21.5011 12.7524C22.4142 11.0357 23.2761 10.066 24.3474 9.55055C24.7017 9.38005 25.4585 9.13939 26.2307 8.95166C26.9406 8.77913 27.6346 8.57942 27.7726 8.50805C28.3226 8.22353 28.6589 7.57632 28.5873 6.94052C28.5316 6.44626 28.1056 5.84129 27.1149 4.84977C25.5114 3.24478 23.387 2.08728 21.1681 1.60952C20.5758 1.48207 18.6186 1.38877 18.1351 1.465ZM20.755 2.99425C22.6732 3.35831 24.5721 4.35388 26.0297 5.75972C26.781 6.48437 27.1902 7.0068 27.1355 7.17123C27.1167 7.22747 26.5602 7.40533 25.894 7.56807C23.9948 8.03183 23.2126 8.40625 22.2083 9.33231C21.3003 10.1697 20.0804 12.1747 19.3812 13.979L19.1057 14.6901L18.7821 14.6264C18.2486 14.5215 17.2745 14.566 16.9358 14.7107L16.6262 14.843L16.1979 13.9342C15.6485 12.7686 15.2576 11.6518 14.9725 10.434C14.7675 9.55881 14.7453 9.31952 14.7434 7.96774C14.7412 6.36364 14.8583 5.65275 15.2685 4.77953C15.6874 3.8881 16.5681 3.2396 17.6903 2.99651C18.4034 2.84195 19.9467 2.84082 20.755 2.99425ZM7.58387 10.1124C8.04933 12.0202 8.42211 12.7995 9.3519 13.8088C10.1958 14.7249 12.3666 16.0286 14.1956 16.7177L14.7045 16.9095L14.6405 17.2332C14.5351 17.7657 14.5793 18.7411 14.7243 19.0805L14.8565 19.3902L13.9481 19.8188C12.7831 20.3684 11.6669 20.7596 10.4497 21.0448C9.57497 21.2499 9.3358 21.2721 7.98471 21.274C6.69185 21.2758 6.3968 21.2517 5.81422 21.0966C3.72534 20.5407 2.89463 19.3247 2.89066 16.8173C2.88775 14.9304 3.49087 13.0722 4.67722 11.3132C5.3765 10.2765 6.86404 8.81708 7.16289 8.87462C7.25218 8.89185 7.37237 9.24532 7.58387 10.1124ZM30.2545 14.9198C32.2974 15.4597 33.133 16.6967 33.1369 19.1866C33.1398 21.0753 32.5323 22.9381 31.334 24.7148C30.6229 25.7693 29.1066 27.2302 28.8325 27.1249C28.7751 27.1029 28.6254 26.6525 28.5001 26.1242C28.019 24.0963 27.5821 23.16 26.6535 22.1669C25.823 21.2786 23.6924 19.9938 21.9545 19.3334L21.3254 19.0944L21.3883 18.7707C21.4924 18.2346 21.4477 17.2615 21.3033 16.9234L21.1711 16.6137L22.0794 16.1824C23.233 15.6348 24.3751 15.238 25.5451 14.9783C26.7919 14.7017 26.8492 14.6964 28.326 14.7261C29.3124 14.746 29.7709 14.7921 30.2545 14.9198ZM18.6919 16.0773C19.1362 16.2087 19.8062 16.879 19.9374 17.3235C20.1785 18.1399 20.0089 18.8435 19.4319 19.4208C18.9943 19.8587 18.6039 20.025 18.0138 20.025C17.4237 20.025 17.0333 19.8587 16.5956 19.4208C16.158 18.983 15.9918 18.5924 15.9918 18.0019C15.9918 17.412 16.1581 17.0209 16.5956 16.5822C16.8196 16.3577 17.1302 16.1338 17.2859 16.0847C17.6739 15.9623 18.292 15.9591 18.6919 16.0773ZM19.8291 22.0682C20.379 23.2352 20.7699 24.3517 21.0551 25.5699C21.2601 26.4451 21.2823 26.6844 21.2842 28.0362C21.2859 29.3297 21.2618 29.6249 21.1069 30.2078C20.5512 32.2977 19.3358 33.1288 16.8297 33.1328C14.942 33.1357 13.0801 32.5279 11.3043 31.329C10.2517 30.6184 8.79027 29.1004 8.89525 28.8268C8.91717 28.7696 9.44006 28.5999 10.0573 28.4496C12.0581 27.9622 12.935 27.5319 13.9323 26.5478C14.8443 25.6479 15.9997 23.7155 16.6502 22.0023L16.9127 21.3107L17.2408 21.376C17.7666 21.4803 18.7517 21.4382 19.0652 21.2978C19.2209 21.2281 19.36 21.1681 19.3742 21.1645C19.3883 21.1609 19.593 21.5676 19.8291 22.0682Z" fill="#ED7D31"/>
</svg>
