<svg width="16" height="16" viewBox="0 0 16 16" fill="none" xmlns="http://www.w3.org/2000/svg">
<path fill-rule="evenodd" clip-rule="evenodd" d="M7.60983 0.00768045C7.55833 0.0150603 7.40585 0.0360742 7.27095 0.0543676C6.50191 0.158687 5.58221 0.592286 4.95669 1.14543C4.16665 1.84411 3.60924 2.85018 3.43941 3.88402C3.3782 4.25665 3.38616 5.10277 3.45411 5.44502C3.67822 6.57355 4.31363 7.61815 5.172 8.26914L5.38563 8.43115L5.29601 8.46527C4.92045 8.60818 4.75549 8.68016 4.43652 8.84024C3.04974 9.53617 1.92137 10.5889 1.12003 11.9345C0.463613 13.0366 0.0978853 14.2649 0.0211627 15.6247L0 16H0.62895H1.2579V15.847C1.2579 14.7874 1.69826 13.3224 2.28732 12.4224C3.19719 11.0322 4.4137 10.0786 5.89737 9.59242C7.30681 9.13062 8.69319 9.13062 10.1026 9.59242C11.5863 10.0786 12.8028 11.0322 13.7127 12.4224C14.3017 13.3224 14.7421 14.7874 14.7421 15.847V16H15.371H16L15.9788 15.6247C15.9021 14.2649 15.5364 13.0366 14.88 11.9345C14.0786 10.5889 12.9503 9.53617 11.5635 8.84024C11.2445 8.68016 11.0795 8.60818 10.704 8.46527L10.6144 8.43115L10.828 8.26914C11.6864 7.61815 12.3218 6.57355 12.5459 5.44502C12.6138 5.10277 12.6218 4.25665 12.5606 3.88402C12.425 3.05885 12.012 2.18762 11.4601 1.56308C10.7782 0.791355 9.81559 0.246213 8.81392 0.0644993C8.57295 0.0207829 7.77957 -0.0166481 7.60983 0.00768045ZM8.52801 1.28825C10.3642 1.5866 11.619 3.31862 11.3231 5.14645C11.0253 6.98604 9.29648 8.24312 7.47199 7.94671C5.63577 7.64836 4.38099 5.91634 4.67686 4.0885C4.97461 2.24919 6.7038 0.991862 8.52801 1.28825Z" fill="#ED7D31"/>
</svg>
