<svg width="14" height="14" viewBox="0 0 14 14" fill="none" xmlns="http://www.w3.org/2000/svg">
<path fill-rule="evenodd" clip-rule="evenodd" d="M7.22849 0.0165588C7.22849 0.0318285 7.19769 0.255976 7.16004 0.514631C7.12239 0.773286 7.09158 1.00671 7.09158 1.03336C7.09158 1.07261 7.13178 1.08818 7.30379 1.1156C8.14427 1.24944 9.1523 1.6459 9.88318 2.13007C10.3329 2.42797 10.6176 2.65852 10.9898 3.02606C11.9545 3.97867 12.5882 5.1311 12.8816 6.46654C12.9332 6.7015 12.9492 6.73956 12.9944 6.73578C13.1302 6.7244 13.9803 6.57975 13.9973 6.56516C14.0078 6.55605 13.987 6.41241 13.9509 6.24592C13.434 3.85725 11.85 1.82884 9.66103 0.75268C8.96696 0.41141 8.26724 0.176125 7.61151 0.0634626C7.46863 0.0389161 7.324 0.0120709 7.2901 0.0037793C7.2562 -0.00448496 7.22849 0.00126171 7.22849 0.0165588ZM2.1452 1.36289C1.88171 1.41765 1.76095 1.51143 1.05746 2.20771C0.682935 2.57842 0.334995 2.94555 0.284257 3.02357C-0.207438 3.77975 -0.0602882 5.03313 0.71823 6.71999C1.58968 8.60827 3.15745 10.5138 4.9558 11.8704C6.01477 12.6693 7.27712 13.3574 8.32376 13.7063C9.18861 13.9946 10.002 14.0762 10.5198 13.9265C10.9074 13.8144 10.9935 13.7491 11.7655 12.9813C12.4153 12.335 12.4911 12.2501 12.5715 12.078C12.6471 11.916 12.6602 11.8572 12.6602 11.6796C12.6602 11.5022 12.647 11.4429 12.5717 11.2812C12.4899 11.1055 12.4089 11.0172 11.4919 10.1031C10.684 9.29779 10.4728 9.10172 10.35 9.04313C10.1426 8.94407 9.94616 8.91068 9.76815 8.9442C9.47295 8.99978 9.36276 9.08185 8.67649 9.75711C8.3208 10.1071 8.00882 10.3934 7.98316 10.3934C7.91673 10.3934 7.2714 10.0611 7.02247 9.8987C6.05518 9.26763 4.956 8.19793 4.2528 7.20329C4.01094 6.86117 3.89769 6.67137 3.73603 6.33721C3.63606 6.13052 3.61185 6.05491 3.62667 5.9955C3.63893 5.94638 3.86867 5.69501 4.27238 5.28896C4.8325 4.72563 4.90805 4.63891 4.98351 4.47255C5.12705 4.15619 5.09657 3.85457 4.88976 3.54452C4.83735 3.46593 4.37178 2.98066 3.85517 2.46612C3.0117 1.62604 2.89771 1.52224 2.73788 1.4486C2.54221 1.35846 2.32075 1.32642 2.1452 1.36289ZM7.08323 2.86499C7.04533 3.06311 6.94542 3.85304 6.95681 3.86442C6.96404 3.87164 7.06817 3.89781 7.18821 3.92254C8.59183 4.21176 9.71311 5.30382 10.0496 6.70932C10.0779 6.82779 10.1048 6.92767 10.1092 6.93125C10.1219 6.94154 11.1439 6.76323 11.159 6.74807C11.176 6.7311 11.129 6.49913 11.0577 6.24762C10.5636 4.50528 9.0948 3.16825 7.30645 2.83281L7.09692 2.79351L7.08323 2.86499Z" fill="#ED7D31"/>
</svg>
