<svg width="10" height="17" viewBox="0 0 10 17" fill="none" xmlns="http://www.w3.org/2000/svg">
<path fill-rule="evenodd" clip-rule="evenodd" d="M0.411853 0.0667099C0.158708 0.184883 0.0364713 0.351182 0.0187583 0.601575C0.00728134 0.764097 0.0200817 0.839637 0.0763609 0.941071C0.121616 1.02263 1.66974 2.46495 4.20527 4.78778L8.26181 8.50404L4.19559 12.2102C1.65826 14.5229 0.102104 15.9653 0.0567846 16.0465C-0.0536817 16.2444 -0.0240442 16.5524 0.121673 16.7207C0.336667 16.9691 0.708264 17.0628 0.999817 16.9422C1.16943 16.872 9.83108 8.97385 9.9309 8.79836C10.0227 8.63693 10.0231 8.37616 9.93165 8.2145C9.83228 8.03875 1.19102 0.118329 1.02159 0.0477016C0.836301 -0.0295217 0.602392 -0.0222177 0.411853 0.0667099Z" fill="white"/>
</svg>
