<svg width="36" height="43" viewBox="0 0 36 43" fill="none" xmlns="http://www.w3.org/2000/svg">
<path fill-rule="evenodd" clip-rule="evenodd" d="M11.9653 2.66377L9.32265 5.32753L17.3341 13.4034L25.3455 21.4793L17.3339 29.5553L9.32232 37.6314L11.9863 40.3157L14.6502 43L25.3252 32.2396L36 21.4794L25.3458 10.7396C19.4861 4.83284 14.6728 0 14.6497 0C14.6268 0 13.4187 1.19873 11.9653 2.66377ZM2.64286 12.0608L0.000332766 14.7245L3.35013 18.1019L6.69993 21.4793L3.34996 24.8568L0 28.2343L2.6432 30.8978L5.28631 33.5611L11.2789 27.5202L17.2715 21.4791L11.2785 15.4381L5.2854 9.3971L2.64286 12.0608Z" fill="#ED7D31"/>
</svg>
